<svg width="56" height="12" xmlns="http://www.w3.org/2000/svg">
 <!-- Created with SVG Editor - http://github.com/mzalive/SVG Editor/ -->

 <g>
  <title>background</title>
  <rect fill="none" id="canvas_background" height="14" width="58" y="-1" x="-1"/>
  <g display="none" overflow="visible" y="0" x="0" height="100%" width="100%" id="canvasGrid">
   <rect fill="url(#gridpattern)" stroke-width="0" y="0" x="0" height="100%" width="100%"/>
  </g>
 </g>
 <g>
  <title>Layer 1</title>
  <!-- Created with SVG Editor - http://github.com/mzalive/SVG Editor/ -->
  <g stroke="null" id="svg_15">
   <g stroke="null" transform="matrix(0.1627415030582821,0,0,0.1627415030582821,0.0335051771877275,12.474825729944314) " id="svg_12">
    <title stroke="null" transform="translate(-3.072366237640381,-1152.13720703125) translate(9.217098236083984,0) translate(-77.83761596679688,0) translate(-97.92000579833984,0) translate(-1330.56005859375,-40.320003509521484) translate(1510.400146484375,0) translate(0,1117.0001220703125) ">background</title>
    <rect stroke="null" x="9.227198" y="-76.457088" width="322" height="72" id="svg_10" fill="none"/>
    <g stroke="null" id="svg_9" display="none">
     <rect stroke="null" id="svg_13" width="580" height="400" x="10.227198" y="-75.457088" stroke-width="0" fill="url(#gridpattern)"/>
    </g>
   </g>
   <g stroke="null" transform="matrix(0.1627415030582821,0,0,0.1627415030582821,0.0335051771877275,12.474825729944314) " id="svg_14">
    <title stroke="null" transform="translate(-3.072366237640381,-1152.13720703125) translate(9.217098236083984,0) translate(-77.83761596679688,0) translate(-97.92000579833984,0) translate(-1330.56005859375,-40.320003509521484) translate(1510.400146484375,0) translate(0,1117.0001220703125) ">Layer 1</title>
    <g stroke="null" id="svg_7">
     <path stroke="null" d="m167.220768,115.319052c1.66043,1.66043 4.35244,1.66043 6.01281,0l27.05766,-27.05725c1.66043,-1.66043 1.66043,-4.35261 0,-6.01304c-1.66043,-1.66043 -4.35261,-1.66043 -6.01304,0l-24.05102,24.05102l-24.05125,-24.05102c-1.66037,-1.66043 -4.35238,-1.66043 -6.01281,0c-1.66037,1.66043 -1.66037,4.35261 0,6.01304l27.05765,27.05725zm-1.24529,-314.79761l0,311.79138l8.5034,0l0,-311.79138l-8.5034,0z" fill="white" id="svg_8" transform="rotate(90 170.2271881103516,-41.45703124999999) "/>
    </g>
   </g>
  </g>
 </g>
</svg>