<svg width="15" height="24" viewBox="0 0 15 24" fill="none" xmlns="http://www.w3.org/2000/svg">
<path d="M7.49879 10.454C7.89181 10.462 8.28245 10.3914 8.64786 10.2465C9.01327 10.1016 9.34609 9.88523 9.62685 9.6101C9.9076 9.33496 10.1306 9.00657 10.2829 8.64417C10.4352 8.28176 10.5136 7.89262 10.5136 7.49953C10.5136 7.10644 10.4352 6.71729 10.2829 6.35489C10.1306 5.99248 9.9076 5.6641 9.62685 5.38896C9.34609 5.11382 9.01327 4.89747 8.64786 4.75256C8.28245 4.60765 7.89181 4.5371 7.49879 4.54504C6.71506 4.54504 5.96342 4.85638 5.40923 5.41056C4.85504 5.96475 4.5437 6.71639 4.5437 7.50013C4.5437 8.28387 4.85504 9.03551 5.40923 9.5897C5.96342 10.1439 6.71506 10.4552 7.49879 10.4552V10.454Z" stroke="#393E4B" stroke-width="1.5" stroke-miterlimit="10" stroke-linejoin="round"/>
<path d="M14 7.93663C14 14.228 7.5 22.2731 7.5 22.2731C7.5 22.2731 1 14.3775 1 7.93663C1 4.10586 3.91047 1 7.50121 1C11.0895 1 14 4.10586 14 7.93663V7.93663Z" stroke="#393E4B" stroke-width="1.5" stroke-miterlimit="10" stroke-linejoin="round"/>
</svg>
