<svg width="19" height="30" viewBox="0 0 19 30" fill="none" xmlns="http://www.w3.org/2000/svg">
<path d="M9.49839 13.3627C10.0123 13.3731 10.5232 13.2808 11.001 13.0913C11.4789 12.9018 11.9141 12.6189 12.2812 12.2591C12.6484 11.8993 12.94 11.4699 13.1391 10.996C13.3382 10.522 13.4408 10.0132 13.4408 9.49912C13.4408 8.98508 13.3382 8.4762 13.1391 8.00228C12.94 7.52837 12.6484 7.09894 12.2812 6.73915C11.9141 6.37935 11.4789 6.09642 11.001 5.90692C10.5232 5.71743 10.0123 5.62517 9.49839 5.63555C8.4735 5.63555 7.49058 6.04269 6.76588 6.7674C6.04117 7.4921 5.63403 8.47502 5.63403 9.49991C5.63403 10.5248 6.04117 11.5077 6.76588 12.2324C7.49058 12.9571 8.4735 13.3643 9.49839 13.3643V13.3627Z" stroke="white" stroke-width="1.5" stroke-miterlimit="10" stroke-linejoin="round"/>
<path d="M18 10.071C18 18.2981 9.5 28.8186 9.5 28.8186C9.5 28.8186 1 18.4937 1 10.071C1 5.06151 4.80599 1 9.50158 1C14.194 1 18 5.06151 18 10.071V10.071Z" stroke="white" stroke-width="1.5" stroke-miterlimit="10" stroke-linejoin="round"/>
</svg>
