<svg width="22" height="22" viewBox="0 0 22 22" fill="none" xmlns="http://www.w3.org/2000/svg">
<path d="M21.9391 6.44765C21.9265 5.53869 21.7532 4.63913 21.4271 3.79058C21.1717 3.0576 20.7552 2.39121 20.2083 1.84044C19.6569 1.30031 18.996 0.884692 18.2704 0.621607C17.3991 0.281453 16.4752 0.0958469 15.5402 0.0731302C14.3579 0 13.9922 0 10.9695 0C7.94682 0 7.65429 0 6.48421 0.0609418C5.5759 0.0796172 4.67738 0.252725 3.82715 0.572853C3.09758 0.851909 2.43503 1.28161 1.8827 1.83394C1.33037 2.38628 0.900662 3.04883 0.621607 3.77839C0.295841 4.63126 0.122566 5.53477 0.109695 6.44765C0 7.61773 0 7.99557 0 10.9695C0 13.9435 0 14.3213 0.0609418 15.4914C0.0961317 16.4052 0.281432 17.307 0.609418 18.1607C0.877129 18.8841 1.29217 19.544 1.82825 20.0986C2.38417 20.639 3.04903 21.0546 3.77839 21.3175C4.63687 21.6818 5.55278 21.8922 6.48421 21.9391C7.70305 21.9391 8.03213 22 11.0061 22C13.9801 22 14.3579 22 15.528 21.9391C16.4364 21.9216 17.3351 21.7484 18.185 21.4271C18.9134 21.1436 19.5753 20.7125 20.1291 20.1608C20.6828 19.6092 21.1165 18.9489 21.4028 18.2216C21.7319 17.3476 21.9131 16.4249 21.9391 15.4914C21.9391 14.2726 22 13.9557 22 10.9695C22 7.98338 21.9391 7.61773 21.9391 6.44765ZM19.9645 15.4061C19.9606 16.1016 19.8326 16.7909 19.5867 17.4416C19.4014 17.9148 19.1176 18.3432 18.754 18.6983C18.3905 19.0535 17.9556 19.3272 17.4781 19.5014C16.8261 19.7425 16.1377 19.8703 15.4427 19.8792C14.2848 19.8792 13.9435 19.9402 11.0183 19.9402C8.09308 19.9402 7.73961 19.9402 6.58172 19.8792C5.88679 19.8689 5.19861 19.7411 4.54626 19.5014C4.08371 19.3244 3.66708 19.0452 3.32742 18.6848C2.96599 18.3459 2.68669 17.9291 2.5108 17.4659C2.25736 16.8174 2.12915 16.1267 2.13296 15.4305C2.07202 14.2848 2.05983 13.9313 2.05983 11.0061C2.05983 8.08089 2.05983 7.72742 2.13296 6.56953C2.10415 5.86987 2.20753 5.17105 2.43767 4.5097C2.6147 4.04714 2.89384 3.63051 3.25429 3.29086C3.59395 2.9304 4.01058 2.65126 4.47313 2.47424C5.14485 2.2087 5.85947 2.06826 6.58172 2.05983C7.73961 2.05983 8.09308 1.99889 11.0183 1.99889C13.9435 1.99889 14.297 1.99889 15.4548 2.05983C16.1504 2.06378 16.8397 2.19173 17.4903 2.43767C17.9529 2.6147 18.3695 2.89384 18.7091 3.25429C19.0696 3.59395 19.3487 4.01058 19.5258 4.47313C19.7702 5.12418 19.8981 5.81318 19.9036 6.50859C19.9036 7.72742 19.9645 8.01994 19.9645 10.9452C19.9645 13.8704 19.9889 14.2482 19.9402 15.4061H19.9645Z" fill="#393E4B"/>
<path d="M10.9694 5.33853C9.85438 5.34575 8.76645 5.68316 7.843 6.30816C6.91954 6.93316 6.20194 7.81774 5.78078 8.85022C5.35963 9.88271 5.25379 11.0168 5.47664 12.1094C5.69948 13.202 6.24102 14.2041 7.03289 14.9891C7.82476 15.7742 8.83147 16.3071 9.92593 16.5205C11.0204 16.7339 12.1536 16.6183 13.1824 16.1883C14.2112 15.7582 15.0895 15.033 15.7066 14.1042C16.3236 13.1754 16.6516 12.0846 16.6492 10.9696C16.6492 10.226 16.502 9.48972 16.216 8.80333C15.9299 8.11695 15.5108 7.49401 14.9827 6.97048C14.4547 6.44695 13.8281 6.03319 13.1393 5.75309C12.4505 5.47299 11.713 5.33209 10.9694 5.33853V5.33853ZM10.9694 14.6261C10.2462 14.6261 9.53929 14.4116 8.93798 14.0098C8.33667 13.608 7.86801 13.037 7.59126 12.3688C7.3145 11.7007 7.24209 10.9655 7.38318 10.2562C7.52427 9.54691 7.87252 8.89538 8.38389 8.38401C8.89526 7.87264 9.54679 7.52439 10.2561 7.3833C10.9654 7.24221 11.7006 7.31462 12.3687 7.59138C13.0369 7.86813 13.6079 8.33679 14.0097 8.9381C14.4115 9.53941 14.6259 10.2464 14.6259 10.9696C14.6259 11.9393 14.2407 12.8694 13.555 13.5551C12.8692 14.2408 11.9392 14.6261 10.9694 14.6261ZM18.1849 5.11914C18.1849 5.37948 18.1077 5.63399 17.9631 5.85046C17.8185 6.06693 17.6129 6.23565 17.3723 6.33528C17.1318 6.43491 16.8671 6.46098 16.6118 6.41019C16.3564 6.35939 16.1219 6.23403 15.9378 6.04993C15.7537 5.86584 15.6283 5.63129 15.5775 5.37594C15.5268 5.1206 15.5528 4.85592 15.6525 4.61539C15.7521 4.37486 15.9208 4.16928 16.1373 4.02464C16.3538 3.87999 16.6083 3.80279 16.8686 3.80279C17.0419 3.80116 17.2138 3.8341 17.3743 3.89968C17.5347 3.96525 17.6805 4.06215 17.803 4.18471C17.9256 4.30727 18.0225 4.45303 18.0881 4.61347C18.1536 4.77391 18.1866 4.94582 18.1849 5.11914V5.11914Z" fill="#393E4B"/>
</svg>
