<svg width="26" height="21" viewBox="0 0 26 21" fill="none" xmlns="http://www.w3.org/2000/svg">
<path d="M7.83498 4.4197C7.44523 3.08663 6.38731 3.23273 5.66398 3.85362C3.88216 5.51534 1.5621 9.00321 3.04696 14.0255C4.29051 18.2803 9.46493 21.0012 9.46493 21.0012H3.43293C3.43293 21.0012 0.318351 17.4768 0.0399279 13.3316C-0.31271 8.09079 1.76624 4.7855 4.17911 2.63079C6.44348 0.603809 8.59652 0.0012207 8.59652 0.0012207L13.0007 14.57L17.4049 0.0012207C17.4049 0.0012207 19.5579 0.60381 21.8223 2.63079C24.2352 4.7855 26.3141 8.09079 25.9615 13.3316C25.683 17.4768 22.5685 21.0012 22.5685 21.0012H16.5365C16.5365 21.0012 21.7105 18.2803 22.9544 14.0255C24.4393 9.00378 22.1192 5.51592 20.3374 3.85362C19.6135 3.23273 18.5556 3.08663 18.1664 4.4197C16.8301 8.67448 13.0012 20.8653 13.0012 20.8653C13.0012 20.8653 9.17243 8.67041 7.83607 4.4197H7.83498Z" fill="#393E4B"/>
</svg>
