<svg width="22" height="18" viewBox="0 0 22 18" fill="none" xmlns="http://www.w3.org/2000/svg">
<path d="M20.1244 0.15891C20.1244 0.15891 22.1596 -0.620235 21.99 1.27197C21.9334 2.05112 21.4246 4.77813 21.0289 7.72775L19.6721 16.4653C19.6721 16.4653 19.5591 17.7453 18.5415 17.9679C17.5239 18.1906 15.9975 17.1888 15.7149 16.9662C15.4888 16.7992 11.475 14.2948 10.0617 13.0705C9.66593 12.7365 9.21368 12.0687 10.1182 11.2896L16.0541 5.72423C16.7325 5.05639 17.4109 3.4981 14.5842 5.39031L6.66973 10.6774C6.66973 10.6774 5.76521 11.2339 4.06924 10.733L0.394648 9.61996C0.394648 9.61996 -0.962125 8.78516 1.3557 7.95036C7.00892 5.33466 13.9624 2.6633 20.1244 0.15891Z" fill="#393E4B"/>
</svg>
