<svg width="29" height="24" viewBox="0 0 29 24" fill="none" xmlns="http://www.w3.org/2000/svg">
<path d="M6.06274 2.7229C6.06274 2.05157 6.32943 1.40774 6.80413 0.933036C7.27883 0.458335 7.92266 0.19165 8.59399 0.19165L20.4065 0.19165C21.0778 0.19165 21.7217 0.458335 22.1964 0.933036C22.6711 1.40774 22.9377 2.05157 22.9377 2.7229L22.9377 3.56665L23.7815 3.56665C24.9004 3.56665 25.9734 4.01112 26.7646 4.80229C27.5558 5.59346 28.0002 6.66652 28.0002 7.7854L28.0002 16.2229C28.0002 16.8942 27.7336 17.5381 27.2589 18.0128C26.7842 18.4875 26.1403 18.7542 25.469 18.7542L22.9377 18.7542L22.9377 21.2854C22.9377 21.9567 22.6711 22.6006 22.1964 23.0753C21.7217 23.55 21.0778 23.8167 20.4065 23.8167L8.59399 23.8167C7.92266 23.8167 7.27883 23.55 6.80413 23.0753C6.32943 22.6006 6.06274 21.9567 6.06274 21.2854L6.06274 18.7542L3.53149 18.7542C2.86016 18.7542 2.21633 18.4875 1.74163 18.0128C1.26693 17.5381 1.00024 16.8942 1.00024 16.2229L1.00024 7.7854C1.00024 6.66652 1.44472 5.59346 2.23589 4.80229C3.02706 4.01112 4.10011 3.56665 5.21899 3.56665L6.06274 3.56665L6.06274 2.7229ZM7.75024 3.56665L21.2502 3.56665L21.2502 2.7229C21.2502 2.49912 21.1613 2.28451 21.0031 2.12628C20.8449 1.96805 20.6303 1.87915 20.4065 1.87915L8.59399 1.87915C8.37022 1.87915 8.15561 1.96805 7.99737 2.12628C7.83914 2.28451 7.75024 2.49912 7.75024 2.7229L7.75024 3.56665ZM6.06274 17.0667L6.06274 14.5354C6.06274 13.8641 6.32943 13.2202 6.80413 12.7455C7.27883 12.2708 7.92266 12.0042 8.59399 12.0042L20.4065 12.0042C21.0778 12.0042 21.7217 12.2708 22.1964 12.7455C22.6711 13.2202 22.9377 13.8641 22.9377 14.5354L22.9377 17.0667L25.469 17.0667C25.6928 17.0667 25.9074 16.9778 26.0656 16.8195C26.2238 16.6613 26.3127 16.4467 26.3127 16.2229L26.3127 7.7854C26.3127 7.11407 26.0461 6.47024 25.5714 5.99554C25.0967 5.52083 24.4528 5.25415 23.7815 5.25415L5.21899 5.25415C4.54766 5.25415 3.90383 5.52083 3.42913 5.99554C2.95443 6.47024 2.68774 7.11407 2.68774 7.7854L2.68774 16.2229C2.68774 16.4467 2.77664 16.6613 2.93487 16.8195C3.09311 16.9778 3.30772 17.0667 3.53149 17.0667L6.06274 17.0667ZM8.59399 13.6917C8.37022 13.6917 8.15561 13.7805 7.99737 13.9388C7.83914 14.097 7.75024 14.3116 7.75024 14.5354L7.75024 21.2854C7.75024 21.5092 7.83914 21.7238 7.99737 21.882C8.15561 22.0403 8.37022 22.1292 8.59399 22.1292L20.4065 22.1292C20.6303 22.1292 20.8449 22.0403 21.0031 21.882C21.1613 21.7238 21.2502 21.5092 21.2502 21.2854L21.2502 14.5354C21.2502 14.3116 21.1613 14.097 21.0031 13.9388C20.8449 13.7805 20.6303 13.6917 20.4065 13.6917L8.59399 13.6917Z" fill="#91252E"/>
<rect x="7.14404" y="13.3022" width="14.7115" height="9.51923" fill="#91252E"/>
</svg>
