<svg width="27" height="26" viewBox="0 0 27 26" fill="none" xmlns="http://www.w3.org/2000/svg">
<path d="M6.36381 25.5331L20.3954 25.5351C20.7331 25.5352 21.0592 25.4261 21.3141 25.2277C21.5689 25.0293 21.7352 24.7551 21.7827 24.4552L24.3874 7.91221L25.9772 7.91244L25.9728 5.3948L24.0336 5.39453L21.6069 1.05504C21.4904 0.845774 21.3111 0.669734 21.0893 0.546723C20.8675 0.423712 20.6119 0.358609 20.3513 0.358737L6.31968 0.356773C5.78788 0.356699 5.30286 0.626018 5.06507 1.05272L2.65503 5.39153L0.715857 5.39126L0.72027 7.9089L2.31005 7.90912L4.97278 24.4529C5.02126 24.7527 5.1886 25.0271 5.44411 25.2255C5.69962 25.4239 6.02615 25.5331 6.36381 25.5331ZM20.9577 11.6882L5.75302 11.6861L5.14444 7.90952L21.5516 7.91182L20.9577 11.6882ZM7.57594 23.0157L6.96736 19.2391L19.7684 19.2409L19.1731 23.0173L7.57594 23.0157ZM7.19125 2.87453L19.4886 2.87625L20.8961 5.39409L5.7925 5.39197L7.19125 2.87453Z" fill="#91252E"/>
</svg>
