<svg width="29" height="23" viewBox="0 0 29 23" fill="none" xmlns="http://www.w3.org/2000/svg">
<path d="M14.4997 18.0505C10.8445 18.0505 7.87494 15.1566 7.74857 11.5411C7.87494 7.92562 10.8445 5.03174 14.4997 5.03174C18.1544 5.03174 21.1248 7.92562 21.2495 11.5411C21.1253 15.1566 18.1548 18.0505 14.4997 18.0505Z" fill="#91252E"/>
<path d="M14.4095 1.9985C19.7797 1.9985 24.1338 6.2884 24.1338 11.58C24.1338 16.8711 19.7793 21.1615 14.4095 21.1615C9.0398 21.1615 4.68575 16.8711 4.68575 11.58C4.68575 6.2884 9.0398 1.9985 14.4095 1.9985ZM14.41 18.5483C18.3159 18.5483 21.4823 15.5341 21.4823 11.8147C21.4823 11.7355 21.4712 11.6584 21.4686 11.58C21.4712 11.5016 21.4823 11.4241 21.4823 11.3452C21.4823 7.62589 18.3154 4.61164 14.41 4.61164C10.5041 4.61164 7.33813 7.62589 7.33813 11.3452C7.33813 11.4241 7.34742 11.5016 7.34963 11.58C7.34698 11.6584 7.33813 11.7355 7.33813 11.8147C7.33858 15.5341 10.5041 18.5483 14.41 18.5483Z" fill="#91252E"/>
<path d="M27.3455 0.875435C27.2394 0.465609 27.0294 0.870644 27.0294 0.870644C27.0294 0.870644 26.9561 5.11263 26.4787 5.15879C26.0014 5.20496 26.3691 0.793992 25.8042 0.709501C25.2792 0.627187 25.5788 5.22891 25.1006 5.18231C24.6241 5.13266 24.5437 0.89242 24.5437 0.89242C24.5437 0.89242 24.3315 0.48782 24.2268 0.894598C22.9326 5.90746 23.9797 7.95659 23.9797 7.95659C23.9797 7.95659 24.1565 8.38732 24.5764 8.3895C24.6157 8.38732 24.5861 20.2949 24.5888 21.8959C24.5879 22.6742 27.0197 22.6502 27.0184 21.8754C27.0166 20.2745 26.9693 8.36816 27.0073 8.36903C27.4286 8.36903 27.6049 7.93873 27.6049 7.93873C27.6049 7.93873 28.648 5.89091 27.3455 0.875435Z" fill="#91252E"/>
<path d="M3.82021 0.69204C3.27303 0.690734 1.00298 2.30348 1.00032 8.29717C0.997673 10.2139 2.05888 10.2135 2.05712 11.4125C2.05535 12.6093 2.04872 22.129 2.04872 22.129C2.04872 22.129 3.21292 22.916 4.07833 22.0924L4.09424 0.86233C4.09335 0.862766 4.09645 0.691605 3.82021 0.69204Z" fill="#91252E"/>
</svg>
