<svg width="27" height="20" viewBox="0 0 27 20" fill="none" xmlns="http://www.w3.org/2000/svg">
<path d="M23.7369 19.6564C24.9285 19.6642 25.8999 18.7976 25.9064 17.7207C25.913 16.6438 24.9522 15.7644 23.7605 15.7565C22.5688 15.7486 21.5975 16.6152 21.5909 17.6921C21.5844 18.7691 22.5452 19.6485 23.7369 19.6564Z" fill="#91252E"/>
<path d="M8.09232 19.5528C9.28401 19.5607 10.2554 18.6941 10.2619 17.6172C10.2684 16.5403 9.30768 15.6608 8.11599 15.653C6.92431 15.6451 5.95295 16.5117 5.94642 17.5886C5.93988 18.6655 6.90064 19.545 8.09232 19.5528Z" fill="#91252E"/>
<path d="M25.392 13.3299L8.54597 13.2184L8.90897 12.6934C9.06462 12.4682 9.1116 12.195 9.03926 11.9371L8.6955 10.7132L24.3344 10.0825C24.9274 10.0591 25.4146 9.60066 25.4179 9.06443L25.4571 2.60523C25.4604 2.069 24.9775 1.62705 24.3841 1.62312L6.10752 1.50216L5.90105 0.768069C5.84223 0.558699 5.7082 0.372768 5.52 0.239443C5.33179 0.106118 5.10005 0.0329405 4.86113 0.03139L1.19728 0.00714059C0.911145 0.00524679 0.636107 0.10615 0.432669 0.287654C0.229232 0.469158 0.11406 0.716394 0.112491 0.974972C0.110921 1.23355 0.223083 1.48229 0.424301 1.66647C0.625519 1.85065 0.899311 1.95519 1.18545 1.95709L4.01533 1.97581L6.83513 12.0103L5.69224 13.6627C5.59058 13.8097 5.53427 13.9787 5.52914 14.1521C5.52401 14.3255 5.57024 14.4972 5.66305 14.6492C5.75548 14.8014 5.8912 14.9286 6.05617 15.0177C6.22113 15.1067 6.40935 15.1543 6.60133 15.1556L25.3802 15.2799C25.6663 15.2818 25.9414 15.1809 26.1448 14.9994C26.3482 14.8179 26.4634 14.5706 26.465 14.312C26.4665 14.0535 26.3544 13.8047 26.1532 13.6205C25.9519 13.4364 25.6781 13.3318 25.392 13.3299Z" fill="#91252E"/>
</svg>
