<svg width="27" height="28" viewBox="0 0 27 28" fill="none" xmlns="http://www.w3.org/2000/svg">
<path d="M13.5162 8.26628C13.948 8.26628 14.3622 8.09473 14.6675 7.78937C14.9729 7.48401 15.1445 7.06986 15.1445 6.63802C15.1445 6.20618 14.9729 5.79203 14.6675 5.48667C14.3622 5.18131 13.948 5.00977 13.5162 5.00977C13.0844 5.00977 12.6702 5.18131 12.3648 5.48667C12.0595 5.79203 11.8879 6.20618 11.8879 6.63802C11.8879 7.06986 12.0595 7.48401 12.3648 7.78937C12.6702 8.09473 13.0844 8.26628 13.5162 8.26628Z" fill="#91252E"/>
<path d="M15.1135 0.567403C14.6618 0.200362 14.0976 0 13.5156 0C12.9336 0 12.3694 0.200362 11.9177 0.567403L1.05835 9.39472C-0.261617 10.4694 0.498235 12.6078 2.2003 12.6078H2.66056V21.726C1.37098 22.3839 0.489551 23.7234 0.489551 25.2713V26.7194C0.489551 27.0072 0.603916 27.2833 0.807488 27.4869C1.01106 27.6905 1.28716 27.8049 1.57505 27.8049H25.4561C25.744 27.8049 26.0201 27.6905 26.2237 27.4869C26.4273 27.2833 26.5416 27.0072 26.5416 26.7194V25.2713C26.5416 23.7255 25.6602 22.3839 24.3706 21.726V12.6078H24.8309C26.5329 12.6078 27.2928 10.4694 25.9707 9.39472L15.1156 0.567403H15.1135ZM13.2898 2.2521C13.3543 2.19994 13.4348 2.17148 13.5178 2.17148C13.6007 2.17148 13.6812 2.19994 13.7457 2.2521L23.8083 10.4368H3.22068L13.2898 2.2521ZM22.1996 21.2918H20.0286V12.6078H22.1996V21.2918ZM17.8576 21.2918H14.6011V12.6078H17.8576V21.2918ZM12.4301 21.2918H9.17358V12.6078H12.4301V21.2918ZM22.5622 23.4628C23.5608 23.4628 24.3706 24.2726 24.3706 25.2713V25.6339H2.66056V25.2713C2.66056 24.2726 3.47034 23.4628 4.46901 23.4628H22.5622ZM7.00257 21.2918H4.83156V12.6078H7.00257V21.2918Z" fill="#91252E"/>
</svg>
