<svg width="25" height="28" viewBox="0 0 25 28" fill="none" xmlns="http://www.w3.org/2000/svg">
<path d="M3.28725 1.213C3.28725 0.953193 3.15056 0.704028 2.90727 0.520317C2.66398 0.336606 2.334 0.233398 1.98994 0.233398C1.64587 0.233398 1.31589 0.336606 1.0726 0.520317C0.829308 0.704028 0.692627 0.953193 0.692627 1.213V7.0906C0.692322 8.21974 1.20867 9.31428 2.1543 10.189C3.09992 11.0637 4.41673 11.6648 5.88186 11.8906V26.6826C5.88186 26.9424 6.01854 27.1916 6.26184 27.3753C6.50513 27.559 6.8351 27.6622 7.17917 27.6622C7.52324 27.6622 7.85322 27.559 8.09651 27.3753C8.3398 27.1916 8.47648 26.9424 8.47648 26.6826V11.8906C9.94162 11.6648 11.2584 11.0637 12.204 10.189C13.1497 9.31428 13.666 8.21974 13.6657 7.0906V1.213C13.6657 0.953193 13.529 0.704028 13.2857 0.520317C13.0425 0.336606 12.7125 0.233398 12.3684 0.233398C12.0243 0.233398 11.6944 0.336606 11.4511 0.520317C11.2078 0.704028 11.0711 0.953193 11.0711 1.213V7.0906C11.0715 7.69859 10.8222 8.29172 10.3575 8.78823C9.89281 9.28475 9.23561 9.66021 8.47648 9.86287V1.213C8.47648 0.953193 8.3398 0.704028 8.09651 0.520317C7.85322 0.336606 7.52324 0.233398 7.17917 0.233398C6.8351 0.233398 6.50513 0.336606 6.26184 0.520317C6.01854 0.704028 5.88186 0.953193 5.88186 1.213V9.86287C5.12273 9.66021 4.46554 9.28475 4.00084 8.78823C3.53614 8.29172 3.28682 7.69859 3.28725 7.0906V1.213ZM21.4496 26.6826V13.9478H17.5576C17.2136 13.9478 16.8836 13.8446 16.6403 13.6609C16.397 13.4772 16.2603 13.228 16.2603 12.9682V5.1314C16.2603 3.83245 17.1062 2.61775 18.2608 1.74394C19.418 0.872098 21.0266 0.233398 22.7469 0.233398C23.0909 0.233398 23.4209 0.336606 23.6642 0.520317C23.9075 0.704028 24.0442 0.953193 24.0442 1.213V26.6826C24.0442 26.9424 23.9075 27.1916 23.6642 27.3753C23.4209 27.559 23.0909 27.6622 22.7469 27.6622C22.4028 27.6622 22.0728 27.559 21.8295 27.3753C21.5863 27.1916 21.4496 26.9424 21.4496 26.6826Z" fill="#91252E"/>
</svg>
