<svg width="28" height="31" viewBox="0 0 28 31" fill="none" xmlns="http://www.w3.org/2000/svg">
<path d="M13.5161 25.4438C14.7001 25.4438 15.7051 26.1873 16.0906 27.2198C16.8478 27.0546 17.5774 26.8206 18.2796 26.5039L15.8565 20.7905C15.1406 21.1347 14.3559 21.3136 13.5161 21.3136C12.6763 21.3136 11.8915 21.1347 11.1756 20.7905L8.75256 26.5039C9.45469 26.8206 10.1844 27.0546 10.9416 27.2198C11.3271 26.1873 12.3321 25.4438 13.5161 25.4438ZM22.1207 23.7367C21.7765 23.2686 21.5149 22.6904 21.5149 22.002C21.5149 20.5014 22.754 19.2485 24.2684 19.2485L24.6952 19.2898C25.0393 18.1884 25.2183 17.0182 25.2183 15.8067C25.2183 14.5952 25.0393 13.4249 24.6952 12.3649H24.2684C22.7402 12.3649 21.5149 11.1396 21.5149 9.61138C21.5149 8.92301 21.7352 8.35855 22.1207 7.87669C20.5121 6.12883 18.4083 4.91363 16.0906 4.39355C15.7051 5.42611 14.7001 6.16954 13.5161 6.16954C12.3321 6.16954 11.3271 5.42611 10.9416 4.39355C8.62381 4.91363 6.52003 6.12883 4.91146 7.87669C5.29695 8.35855 5.531 8.96432 5.531 9.61138C5.531 10.3416 5.2409 11.042 4.72452 11.5584C4.20815 12.0748 3.50779 12.3649 2.77752 12.3649H2.33697C1.99278 13.4387 1.81381 14.5952 1.81381 15.8067C1.81381 17.032 2.00655 18.2022 2.35074 19.3174L2.77752 19.2485C4.3057 19.2485 5.531 20.5151 5.531 22.002C5.531 22.6904 5.31072 23.2824 4.92523 23.7505C5.36579 24.2323 5.86141 24.6729 6.37081 25.0721L8.9866 18.9319C8.36707 18.037 8.00912 16.9632 8.00912 15.8067C8.00912 14.3462 8.58932 12.9454 9.62207 11.9127C10.6548 10.8799 12.0555 10.2998 13.5161 10.2998C14.9766 10.2998 16.3773 10.8799 17.4101 11.9127C18.4428 12.9454 19.023 14.3462 19.023 15.8067C19.023 16.9632 18.6651 18.037 18.0455 18.9319L20.6613 25.0721C21.1845 24.6729 21.6663 24.2186 22.1207 23.7367ZM13.5161 30.9508C12.1393 30.9508 10.9829 29.932 10.7626 28.5966C9.88761 28.409 9.03416 28.1322 8.21563 27.7705L6.86643 30.9508H3.87891L5.82011 26.38C5.08825 25.8567 4.4185 25.2517 3.82384 24.5765C3.49343 24.7142 3.14924 24.7555 2.77752 24.7555C2.04726 24.7555 1.3469 24.4654 0.830525 23.949C0.314149 23.4326 0.0240515 22.7323 0.0240515 22.002C0.0240515 21.1484 0.437072 20.3775 1.08414 19.8681C0.225604 17.2434 0.220784 14.4142 1.07037 11.7866C0.620547 11.4312 0.292471 10.9446 0.131648 10.3944C-0.0291741 9.84412 -0.0147713 9.25745 0.172859 8.71575C0.36049 8.17404 0.712047 7.70415 1.17877 7.37125C1.64549 7.03835 2.20424 6.85894 2.77752 6.85791C3.13547 6.85791 3.47966 6.94051 3.78254 7.06442C5.61823 5.00561 8.06391 3.58741 10.7626 3.01682C10.9829 1.68138 12.1393 0.662598 13.5161 0.662598C14.8928 0.662598 16.0493 1.68138 16.2695 3.01682C19.023 3.59505 21.4185 5.04062 23.2358 7.05065C23.5525 6.92675 23.8967 6.85791 24.2684 6.85791C24.9986 6.85791 25.699 7.14801 26.2154 7.66438C26.7317 8.18076 27.0218 8.88112 27.0218 9.61138C27.0204 10.0284 26.9242 10.4397 26.7405 10.8141C26.5569 11.1886 26.2906 11.5164 25.9618 11.7729C26.3748 13.0532 26.5951 14.43 26.5951 15.8067C26.5951 17.1834 26.3748 18.5602 25.9618 19.8405C26.5951 20.3499 27.0218 21.1347 27.0218 22.002C27.0218 23.544 25.7966 24.7555 24.2684 24.7555C23.8967 24.7555 23.5525 24.7004 23.2221 24.5627C22.6163 25.2373 21.9417 25.8431 21.212 26.38L23.1532 30.9508H20.1657L18.8165 27.7705C17.9905 28.1285 17.1369 28.4176 16.2695 28.5966C16.0493 29.932 14.8928 30.9508 13.5161 30.9508Z" fill="#91252E"/>
</svg>
