<svg width="30" height="29" viewBox="0 0 30 29" fill="none" xmlns="http://www.w3.org/2000/svg">
<path d="M23.6327 7.85781V2.02919C23.6324 1.70454 23.5032 1.3933 23.2737 1.16375C23.0441 0.934189 22.7329 0.80506 22.4082 0.804688H7.22442C6.89978 0.80506 6.58854 0.934189 6.35898 1.16375C6.12942 1.3933 6.00029 1.70454 5.99992 2.02919V7.85781L0.122314 12.0558V28.2335H29.5103V12.0558L23.6327 7.85781ZM26.9192 12.613L23.6327 14.7615V10.2652L26.9192 12.613ZM7.95912 2.76389H21.6735V16.0426L18.1735 18.331L15.3218 16.8523L12.2138 18.3528L7.95912 15.7696V2.76389ZM15.2905 19.043L27.5511 25.4004V26.2743H2.08152V25.4198L15.2905 19.043ZM2.08152 14.4931L10.1108 19.3681L2.08152 23.2442V14.4931ZM20.1702 19.3666L27.5511 14.5403V23.1935L20.1702 19.3666ZM5.99992 10.2652V14.5803L2.73454 12.5975L5.99992 10.2652Z" fill="#91252E"/>
</svg>
