<svg width="27" height="26" viewBox="0 0 27 26" fill="none" xmlns="http://www.w3.org/2000/svg">
<path d="M13.2384 0.950684C9.82297 0.950684 6.54746 2.23604 4.13241 4.52398C1.71736 6.81192 0.360596 9.91504 0.360596 13.1507C0.360596 16.3863 1.71736 19.4894 4.13241 21.7774C6.54746 24.0653 9.82297 25.3507 13.2384 25.3507C16.6538 25.3507 19.9293 24.0653 22.3443 21.7774C24.7594 19.4894 26.1162 16.3863 26.1162 13.1507C26.1162 9.91504 24.7594 6.81192 22.3443 4.52398C19.9293 2.23604 16.6538 0.950684 13.2384 0.950684ZM8.5573 3.43643L12.4367 5.58058V8.17308L7.97941 11.1499L5.46824 10.2852L4.46056 6.45441C5.56072 5.16115 6.96323 4.12796 8.5573 3.43643ZM2.02505 14.206L4.96601 11.7355L7.45464 12.591L9.1368 17.6083L7.98263 19.2446H3.98569C2.88706 17.752 2.2119 16.017 2.02505 14.206ZM10.6194 23.5359L9.30743 20.1108L10.4503 18.4897H16.0312L17.1758 20.1108L15.8638 23.5344C14.1399 23.9243 12.3433 23.9243 10.6194 23.5344V23.5359ZM22.4911 19.2446H18.5022L17.3432 17.6052L18.9931 12.5925L21.5156 11.7324L24.4517 14.206C24.2648 16.017 23.5897 17.752 22.4911 19.2446ZM22.0242 6.46508L21.0166 10.2822L18.4668 11.1514L14.0448 8.17461V5.58211L17.9227 3.43643C19.5195 4.12993 20.9238 5.16637 22.0242 6.46356V6.46508Z" fill="#91252E"/>
</svg>
