<svg width="142" height="13" viewBox="0 0 142 13" fill="none" xmlns="http://www.w3.org/2000/svg">
<path d="M0.427002 12.1996V0.821562H6.41868C7.36093 0.821562 8.14194 0.897414 8.76408 1.04912C9.38543 1.20083 9.87936 1.40942 10.2443 1.67491C10.61 1.93091 10.8664 2.23433 11.0127 2.58515C11.1677 2.92649 11.2455 3.29154 11.2455 3.68029C11.2455 4.27763 11.0898 4.7849 10.7791 5.20209C10.4779 5.6098 10.0477 5.92269 9.49082 6.14077C10.2034 6.38728 10.7154 6.76656 11.0261 7.27857C11.3462 7.7811 11.5059 8.35944 11.5059 9.01373C11.5059 9.49725 11.4327 9.93818 11.2864 10.3364C11.1401 10.7251 10.8798 11.0618 10.5054 11.3462C10.1397 11.6211 9.64105 11.8345 9.01026 11.9862C8.38891 12.1285 7.59846 12.1996 6.63813 12.1996H0.427002ZM2.71687 7.09368V10.4217H6.63813C7.11397 10.4217 7.51588 10.3838 7.84543 10.308C8.17419 10.2227 8.43925 10.1089 8.6406 9.96663C8.8506 9.81491 8.99689 9.63949 9.07947 9.44036C9.17071 9.23174 9.21633 9.00899 9.21633 8.77193C9.21633 8.52539 9.17071 8.30255 9.07947 8.1035C8.99689 7.89489 8.8506 7.71472 8.6406 7.56303C8.43925 7.4113 8.17419 7.29752 7.84543 7.22168C7.51588 7.13635 7.11397 7.09368 6.63813 7.09368H2.71687ZM8.95599 3.97896C8.95599 3.77984 8.91037 3.59494 8.81835 3.42428C8.72711 3.25361 8.58082 3.11138 8.37947 2.9976C8.18756 2.87434 7.92722 2.77952 7.59846 2.71315C7.27835 2.6373 6.88509 2.59937 6.41868 2.59937H2.71687V5.31587H6.55633C7.43408 5.30639 8.05071 5.17838 8.407 4.93186C8.77274 4.68534 8.95599 4.3677 8.95599 3.97896ZM17.8161 0.821562H20.1056V10.4217H27.6059V12.1996H17.8161V0.821562ZM46.1512 12.1996H43.8608L42.7912 9.82439H36.7586L35.6889 12.1996H33.3986L38.5959 0.821562H40.9538L46.1512 12.1996ZM37.5537 8.0466H41.9826L39.9943 3.62339L39.7615 2.58515L39.5421 3.62339L37.5537 8.0466ZM63.051 8.41634C63.051 8.9758 62.9087 9.50199 62.6263 9.99507C62.3424 10.4882 61.9405 10.9195 61.419 11.2893C60.907 11.6591 60.2951 11.953 59.5817 12.1711C58.8691 12.3797 58.0779 12.484 57.2096 12.484C56.2681 12.484 55.414 12.3703 54.6455 12.1427C53.8779 11.9151 53.2196 11.5595 52.6714 11.076C52.1318 10.5924 51.711 9.97611 51.4098 9.22708C51.1172 8.46857 50.9709 7.56303 50.9709 6.51056C50.9709 5.44861 51.1172 4.54312 51.4098 3.79406C51.711 3.03553 52.1318 2.41448 52.6714 1.93091C53.2196 1.44735 53.8779 1.09653 54.6455 0.878449C55.414 0.650889 56.2681 0.537109 57.2096 0.537109C58.0779 0.537109 58.8691 0.641408 59.5817 0.850009C60.3037 1.05861 60.9164 1.34779 61.419 1.71758C61.931 2.07788 62.329 2.49982 62.6122 2.98338C62.8953 3.46695 63.0377 3.97896 63.0377 4.51941L60.7473 4.71853C60.7379 4.35822 60.6467 4.0311 60.4736 3.73717C60.3085 3.44324 60.0709 3.19197 59.7603 2.98338C59.4582 2.76531 59.0886 2.59937 58.6497 2.48559C58.2195 2.37181 57.7397 2.31493 57.2096 2.31493C56.5969 2.31493 56.0448 2.40026 55.5508 2.57093C55.0663 2.7416 54.655 3.00234 54.3168 3.35317C53.9786 3.70399 53.7174 4.14014 53.535 4.66163C53.3517 5.18313 53.2605 5.79943 53.2605 6.51056C53.2605 7.22168 53.3517 7.84273 53.535 8.37367C53.7174 8.8952 53.9786 9.33131 54.3168 9.68216C54.655 10.0235 55.0663 10.2795 55.5508 10.4502C56.0448 10.6208 56.5969 10.7062 57.2096 10.7062C57.7491 10.7062 58.2384 10.6445 58.6772 10.5213C59.1161 10.3886 59.4858 10.2131 59.7878 9.99507C60.0985 9.77698 60.336 9.51622 60.5004 9.21286C60.6742 8.90942 60.7615 8.57754 60.7615 8.21729L63.051 8.41634ZM69.4596 12.1996V0.821562H71.7499V6.19767L77.81 0.821562H80.7587L74.7387 6.11233L80.7312 12.1996H77.7833L73.1075 7.36391L71.7499 8.34522V12.1996H69.4596ZM86.3666 12.1996V0.821562H92.3582C93.3005 0.821562 94.0815 0.897414 94.7036 1.04912C95.325 1.20083 95.8181 1.40942 96.1839 1.67491C96.5496 1.93091 96.8052 2.23433 96.9523 2.58515C97.1072 2.92649 97.1851 3.29154 97.1851 3.68029C97.1851 4.27763 97.0301 4.7849 96.7187 5.20209C96.4174 5.6098 95.988 5.92269 95.4304 6.14077C96.143 6.38728 96.655 6.76656 96.9657 7.27857C97.2858 7.7811 97.4454 8.35944 97.4454 9.01373C97.4454 9.49725 97.3731 9.93818 97.226 10.3364C97.0797 10.7251 96.8194 11.0618 96.445 11.3462C96.0785 11.6211 95.5806 11.8345 94.9498 11.9862C94.3285 12.1285 93.538 12.1996 92.5777 12.1996H86.3666ZM88.6561 7.09368V10.4217H92.5777C93.0535 10.4217 93.4554 10.3838 93.785 10.308C94.1137 10.2227 94.3788 10.1089 94.5801 9.96663C94.7901 9.81491 94.9364 9.63949 95.019 9.44036C95.1103 9.23174 95.1559 9.00899 95.1559 8.77193C95.1559 8.52539 95.1103 8.30255 95.019 8.1035C94.9364 7.89489 94.7901 7.71472 94.5801 7.56303C94.3788 7.4113 94.1137 7.29752 93.785 7.22168C93.4554 7.13635 93.0535 7.09368 92.5777 7.09368H88.6561ZM94.8955 3.97896C94.8955 3.77984 94.8499 3.59494 94.7579 3.42428C94.6667 3.25361 94.5204 3.11138 94.319 2.9976C94.1271 2.87434 93.8668 2.77952 93.538 2.71315C93.2179 2.6373 92.8246 2.59937 92.3582 2.59937H88.6561V5.31587H92.4959C93.3728 5.30639 93.9903 5.17838 94.3465 4.93186C94.7123 4.68534 94.8955 4.3677 94.8955 3.97896ZM104.016 12.1996V0.821562H106.306V12.1996H104.016ZM113.029 12.1996V0.821562H118.816C119.785 0.821562 120.612 0.902155 121.297 1.06334C121.993 1.22453 122.555 1.46158 122.984 1.77447C123.423 2.07788 123.743 2.44766 123.944 2.88382C124.145 3.31998 124.245 3.81302 124.245 4.36296C124.245 5.26372 123.967 6.00805 123.409 6.59589C122.861 7.18374 121.96 7.57252 120.708 7.76213L120.9 7.87592L124.451 12.1996H121.695L118.377 7.89014H115.319V12.1996H113.029ZM121.956 4.36296C121.956 3.7751 121.713 3.3342 121.229 3.04027C120.744 2.74633 119.94 2.59937 118.816 2.59937H115.319V6.11233H118.816C119.94 6.11233 120.744 5.97011 121.229 5.68566C121.713 5.39172 121.956 4.95082 121.956 4.36296ZM130.619 0.821562H135.871C136.94 0.821562 137.859 0.949566 138.627 1.20557C139.404 1.45209 140.039 1.81713 140.533 2.3007C141.035 2.78426 141.405 3.38161 141.644 4.09274C141.881 4.79438 142 5.60032 142 6.51056C142 7.4208 141.881 8.23151 141.644 8.94261C141.405 9.64423 141.035 10.2369 140.533 10.7204C140.039 11.204 139.404 11.5737 138.627 11.8298C137.859 12.0763 136.94 12.1996 135.871 12.1996H130.619V0.821562ZM139.71 6.51056C139.71 3.90311 138.43 2.59937 135.871 2.59937H132.909V10.4217H135.871C137.16 10.4217 138.119 10.1041 138.75 9.4688C139.39 8.83356 139.71 7.84747 139.71 6.51056Z" fill="white"/>
</svg>
