<svg width="219.99999999999997" height="50" xmlns="http://www.w3.org/2000/svg">
 <!-- Created with SVG Editor - http://github.com/mzalive/SVG Editor/ -->

 <g>
  <title>background</title>
  <rect fill="none" id="canvas_background" height="52" width="222" y="-1" x="-1"/>
  <g display="none" overflow="visible" y="0" x="0" height="100%" width="100%" id="canvasGrid">
   <rect fill="url(#gridpattern)" stroke-width="0" y="0" x="0" height="100%" width="100%"/>
  </g>
 </g>
 <g>
  <title>Layer 1</title>
  <g stroke="null" id="svg_5">
   <path stroke="null" id="svg_4" fill="white" d="m8.513419,15.29408l-7.868924,10.231335l8.055306,10.08679l-0.057285,-6.245135l12.370947,-0.112276l0.000512,12.669645l-6.255584,-0.000307l10.159114,7.963487l10.158499,-7.962463l-6.241755,-0.000307l-0.000615,-12.741047l13.054518,-0.118525l0.057367,6.253638l7.868934,-10.231335l-8.055377,-10.08679l0.057265,6.244008l-12.983014,0.117808l-0.000615,-12.685616l6.248413,0.000297l-10.159216,-7.963467l-10.158397,7.962504l6.248926,0.000297l0.000615,12.757079l-12.442277,0.11289l-0.057357,-6.252511z" clip-rule="evenodd" fill-rule="evenodd"/>
  </g>
  <g stroke="null" id="svg_17">
   <path stroke="null" id="svg_9" fill="white" d="m52.369703,0.540425l21.489894,0l0,3.711085l-8.556223,0l0,25.735547l-4.377526,0l0,-25.735547l-8.556136,0l0,-3.711085l-0.00001,0z"/>
   <path stroke="null" id="svg_10" fill="white" d="m78.095986,17.966422l11.18265,0c-0.026537,-1.990011 -0.530555,-3.522852 -1.512243,-4.598523c-0.955056,-1.075671 -2.281634,-1.613507 -3.979638,-1.613507c-1.697909,0 -3.064245,0.551248 -4.098913,1.65384c-1.008226,1.075671 -1.538781,2.5951 -1.591855,4.55819zm0,3.146348c0.079612,1.882425 0.716316,3.374933 1.910207,4.477524c1.220429,1.102592 2.745893,1.65384 4.576488,1.65384c1.989819,0 3.979638,-0.510915 5.969458,-1.532841l0.99491,3.065682c-2.308171,1.075671 -4.76225,1.613507 -7.362331,1.613507c-2.971412,0 -5.412174,-0.981593 -7.322381,-2.944683c-1.883766,-1.990011 -2.825601,-4.638856 -2.825601,-7.946535c0,-3.388441 0.87554,-6.050698 2.626619,-7.986964c1.777521,-1.93617 4.151987,-2.904293 7.123399,-2.904293c2.944971,0 5.239825,0.914282 6.884755,2.742961c1.64493,1.828679 2.467395,4.477524 2.467395,7.946631c0,0.403329 -0.026537,1.008418 -0.079612,1.815171l-14.963306,0z"/>
   <path stroke="null" id="svg_11" fill="white" d="m111.190119,8.608006l0,3.388383c-2.918433,0 -5.226605,0.806753 -6.924513,2.42026c-1.698005,1.586682 -2.547007,3.684183 -2.547007,6.292695l0,9.277712l-4.059155,0l0,-20.975674l3.860173,0l0.079612,4.033757l0.079612,0c2.440858,-2.958096 5.611252,-4.437134 9.511278,-4.437134z"/>
   <path stroke="null" id="svg_12" fill="white" d="m119.900105,9.011383l0.079612,2.823675l0.079612,0c1.512243,-2.151342 3.250006,-3.227052 5.213288,-3.227052c2.520374,0 4.364286,1.21012 5.53164,3.630381l0.079612,0c1.565318,-2.42026 3.541821,-3.630381 5.929604,-3.630381c2.175485,0 3.780561,0.631962 4.815324,1.895875c1.034668,1.263923 1.552001,3.321187 1.552001,6.171697l0,13.311479l-3.900026,0l0,-12.101301c0,-2.366515 -0.251961,-3.966609 -0.756074,-4.800283c-0.504113,-0.833578 -1.40619,-1.250415 -2.706135,-1.250415c-1.087742,0 -2.056115,0.605089 -2.905117,1.815171c-0.849002,1.183257 -1.273503,2.5951 -1.273503,4.235527l0,12.101301l-3.900026,0l0,-12.101301c0,-2.366515 -0.251961,-3.966609 -0.756074,-4.800283c-0.504113,-0.833578 -1.406094,-1.250415 -2.706135,-1.250415c-1.087742,0 -2.056115,0.605089 -2.905117,1.815171c-0.849002,1.183257 -1.273503,2.5951 -1.273503,4.235527l0,12.101301l-3.979543,0l0,-20.975674l3.780561,0z"/>
   <path stroke="null" id="svg_13" fill="white" d="m150.118628,4.170834l0,-4.437172l4.218187,0l0,4.437172l-4.218187,0zm0,25.816223l0,-20.975674l4.218187,0l0,20.975674l-4.218187,0z"/>
   <path stroke="null" id="svg_14" fill="white" d="m165.253516,9.011383l0.079516,3.02534l0.079516,0c0.848811,-1.075671 1.871024,-1.909345 3.064724,-2.500926c1.1937,-0.61853 2.441049,-0.92779 3.74109,-0.92779c4.509427,0 6.764619,3.092545 6.764619,9.27775l0,12.101301l-3.900122,0l0,-11.697972c0,-2.447181 -0.318065,-4.114433 -0.955152,-5.001852c-0.610262,-0.91434 -1.711034,-1.371509 -3.302314,-1.371509c-1.35369,0 -2.586669,0.685755 -3.701811,2.057264c-1.114184,1.344589 -1.670797,2.917763 -1.670797,4.719522l0,11.294547l-3.979638,0l0,-20.975674l3.780369,0z"/>
   <path stroke="null" id="svg_15" fill="white" d="m196.855907,19.579929l-1.989819,0c-2.388358,0 -4.231599,0.416837 -5.53164,1.250511c-1.273216,0.833578 -1.910303,1.93617 -1.910303,3.307679c0,0.995005 0.292198,1.788251 0.875635,2.379927c0.610262,0.564756 1.405424,0.847086 2.3874,0.847086c1.671755,0 3.117415,-0.578168 4.33794,-1.734505c1.220525,-1.183257 1.830787,-2.62202 1.830787,-4.316193l0,-1.734505zm-13.331884,4.759854c0,-2.339594 0.968564,-4.208607 2.904734,-5.606941c1.963953,-1.425255 4.775758,-2.13793 8.437332,-2.13793l1.989819,0l0,-0.201664c0,-1.694172 -0.344889,-2.87743 -1.034668,-3.549772c-0.663912,-0.672247 -1.844199,-1.008418 -3.541821,-1.008418c-2.520565,0 -4.841861,0.605089 -6.964846,1.815171l-0.59685,-3.227013c2.228368,-1.21014 4.748933,-1.815209 7.561696,-1.815209c2.997662,0 5.173338,0.618511 6.52607,1.855542c1.35369,1.210178 2.030056,3.146348 2.030056,5.808701l0,8.067534c0,1.909345 0.198311,3.79177 0.59685,5.647274l-3.780369,0c-0.212682,-1.183162 -0.332435,-2.258833 -0.358302,-3.227013l-0.079516,0c-0.743428,1.129512 -1.778096,2.016931 -3.104003,2.662353c-1.300041,0.645422 -2.772526,0.968085 -4.417456,0.968085c-1.884436,0 -3.382788,-0.537836 -4.496972,-1.613507c-1.114184,-1.075671 -1.671755,-2.554767 -1.671755,-4.437191z"/>
   <path stroke="null" id="svg_16" fill="white" d="m208.141449,29.987057l0,-30.253395l4.218187,0l0,30.253395l-4.218187,0z"/>
  </g>
 </g>
</svg>