<svg width="20" height="20" viewBox="0 0 20 20" fill="none" xmlns="http://www.w3.org/2000/svg">
<path d="M18.9964 7.88126C18.9945 7.86059 18.9904 7.84016 18.9841 7.82037C18.98 7.80268 18.9742 7.78542 18.967 7.76875C18.9586 7.75248 18.9485 7.73708 18.937 7.72284C18.9254 7.70593 18.912 7.69035 18.8971 7.67632C18.8923 7.67214 18.8902 7.66641 18.8851 7.66222L15.9999 5.42139V3.09895C15.9999 2.60188 15.5969 2.19889 15.0998 2.19889H11.8485L10.5467 1.18812C10.2252 0.937295 9.77418 0.937295 9.45259 1.18812L8.15051 2.19889H4.89924C4.40217 2.19889 3.99919 2.60184 3.99919 3.09895V5.42142L1.11486 7.66226C1.10976 7.66648 1.10765 7.67217 1.10287 7.67636C1.08793 7.69035 1.07454 7.70596 1.06297 7.72287C1.05144 7.73711 1.04138 7.75248 1.03298 7.76879C1.0257 7.78542 1.02 7.80272 1.01589 7.8204C1.00963 7.83992 1.00552 7.86003 1.00359 7.88042C1.00359 7.88671 1 7.89213 1 7.89842V18.0999C1.00042 18.2908 1.06216 18.4764 1.17611 18.6295C1.1779 18.6322 1.17822 18.6355 1.18029 18.6379C1.1824 18.6403 1.1869 18.643 1.18989 18.6463C1.35844 18.868 1.62057 18.9988 1.89913 19H18.1C18.3796 18.9992 18.6428 18.8678 18.8116 18.6448C18.814 18.6418 18.8176 18.6409 18.8197 18.6379C18.8218 18.6349 18.8221 18.6322 18.8239 18.6295C18.9378 18.4764 18.9996 18.2908 19 18.1V7.89926C19 7.89297 18.9967 7.88756 18.9964 7.88126ZM9.8195 1.66153C9.92427 1.57827 10.0726 1.57827 10.1774 1.66153L10.8695 2.19886H9.12945L9.8195 1.66153ZM1.97472 18.4L9.81953 12.3063C9.92437 12.2231 10.0726 12.2231 10.1774 12.3063L18.0243 18.4H1.97472ZM18.4 17.9322L10.5467 11.8328C10.2251 11.5822 9.77425 11.5822 9.45259 11.8328L1.59909 17.9322V8.35618L6.51545 12.174C6.64645 12.2755 6.83497 12.2517 6.93654 12.1207C7.03811 11.9897 7.01427 11.8012 6.88328 11.6996L1.88862 7.82125L3.99923 6.18103V8.49928C3.99923 8.66498 4.13357 8.79929 4.29923 8.79929C4.46493 8.79929 4.59923 8.66495 4.59923 8.49928V3.09892C4.59923 2.93321 4.73354 2.79891 4.89924 2.79891H15.0997C15.2654 2.79891 15.3997 2.93321 15.3997 3.09892V8.49928C15.3997 8.66498 15.534 8.79929 15.6997 8.79929C15.8654 8.79929 15.9998 8.66495 15.9998 8.49928V6.18103L18.1104 7.82125L13.107 11.7065C13.021 11.7717 12.9765 11.8782 12.9908 11.9853C13.0051 12.0923 13.0758 12.1834 13.176 12.2238C13.2761 12.2642 13.3903 12.2477 13.4748 12.1805L18.3999 8.35618V17.9322H18.4Z" fill="white" stroke="white" stroke-width="0.5"/>
</svg>
