<svg width="168" height="32" viewBox="0 0 168 32" fill="none" xmlns="http://www.w3.org/2000/svg">
<path d="M0.974365 0.842107H23.4058V4.71579H14.4747V31.5789H9.90538V4.71579H0.974365V0.842107Z" fill="white"/>
<path d="M27.8278 19.0316H39.5004C39.4727 16.9544 38.9466 15.3544 37.9219 14.2316C36.925 13.1088 35.5403 12.5474 33.7679 12.5474C31.9956 12.5474 30.5694 13.1228 29.4894 14.2737C28.437 15.3965 27.8832 16.9825 27.8278 19.0316ZM27.8278 22.3158C27.9109 24.2807 28.5755 25.8386 29.8217 26.9895C31.0956 28.1404 32.6879 28.7158 34.5987 28.7158C36.6757 28.7158 38.7527 28.1825 40.8297 27.1158L41.8682 30.3158C39.4589 31.4386 36.8973 32 34.1833 32C31.0817 32 28.534 30.9754 26.5401 28.9263C24.5738 26.8491 23.5907 24.0842 23.5907 20.6316C23.5907 17.0947 24.5046 14.3158 26.3324 12.2947C28.1878 10.2737 30.6663 9.26316 33.7679 9.26316C36.8419 9.26316 39.2373 10.2175 40.9543 12.1263C42.6713 14.0351 43.5298 16.8 43.5298 20.4211C43.5298 20.8421 43.5021 21.4737 43.4467 22.3158H27.8278Z" fill="white"/>
<path d="M62.3719 9.26316V12.8C59.3256 12.8 56.9163 13.6421 55.144 15.3263C53.3716 16.9825 52.4854 19.1719 52.4854 21.8947V31.5789H48.2484V9.68421H52.2777L52.3608 13.8947H52.4439C54.9917 10.807 58.301 9.26316 62.3719 9.26316Z" fill="white"/>
<path d="M71.4635 9.68421L71.5466 12.6316H71.6297C73.2082 10.386 75.0221 9.26316 77.0714 9.26316C79.7022 9.26316 81.6269 10.5263 82.8454 13.0526H82.9285C84.5624 10.5263 86.6255 9.26316 89.1179 9.26316C91.3887 9.26316 93.0641 9.92281 94.1442 11.2421C95.2242 12.5614 95.7642 14.7088 95.7642 17.6842V31.5789H91.6933V18.9474C91.6933 16.4772 91.4303 14.807 90.9041 13.9368C90.3779 13.0667 89.4363 12.6316 88.0794 12.6316C86.944 12.6316 85.9332 13.2632 85.047 14.5263C84.1608 15.7614 83.7177 17.2351 83.7177 18.9474V31.5789H79.6468V18.9474C79.6468 16.4772 79.3838 14.807 78.8576 13.9368C78.3314 13.0667 77.3899 12.6316 76.0329 12.6316C74.8975 12.6316 73.8867 13.2632 73.0005 14.5263C72.1143 15.7614 71.6712 17.2351 71.6712 18.9474V31.5789H67.5173V9.68421H71.4635Z" fill="white"/>
<path d="M103.006 4.63158V0H107.409V4.63158H103.006ZM103.006 31.5789V9.68421H107.409V31.5789H103.006Z" fill="white"/>
<path d="M118.804 9.68421L118.887 12.8421H118.97C119.856 11.7193 120.923 10.8491 122.169 10.2316C123.415 9.58597 124.717 9.26316 126.074 9.26316C130.781 9.26316 133.135 12.4912 133.135 18.9474V31.5789H129.064V19.3684C129.064 16.814 128.732 15.0737 128.067 14.1474C127.43 13.193 126.281 12.7158 124.62 12.7158C123.207 12.7158 121.92 13.4316 120.756 14.8632C119.593 16.2667 119.012 17.9088 119.012 19.7895V31.5789H114.858V9.68421H118.804Z" fill="white"/>
<path d="M151.791 20.7158H149.714C147.221 20.7158 145.297 21.1509 143.94 22.0211C142.611 22.8912 141.946 24.0421 141.946 25.4737C141.946 26.5123 142.251 27.3403 142.86 27.9579C143.497 28.5474 144.327 28.8421 145.352 28.8421C147.097 28.8421 148.606 28.2386 149.88 27.0316C151.154 25.7965 151.791 24.2947 151.791 22.5263V20.7158ZM137.875 25.6842C137.875 23.2421 138.886 21.2912 140.907 19.8316C142.957 18.3439 145.892 17.6 149.714 17.6H151.791V17.3895C151.791 15.6211 151.431 14.386 150.711 13.6842C150.018 12.9825 148.786 12.6316 147.014 12.6316C144.383 12.6316 141.96 13.2632 139.744 14.5263L139.121 11.1579C141.447 9.89474 144.078 9.26316 147.014 9.26316C150.143 9.26316 152.414 9.90877 153.826 11.2C155.239 12.4632 155.945 14.4842 155.945 17.2632V25.6842C155.945 27.6772 156.152 29.6421 156.568 31.5789H152.622C152.4 30.3439 152.275 29.2211 152.248 28.2105H152.165C151.389 29.3895 150.309 30.3158 148.925 30.9895C147.568 31.6632 146.031 32 144.314 32C142.347 32 140.783 31.4386 139.62 30.3158C138.457 29.193 137.875 27.6491 137.875 25.6842Z" fill="white"/>
<path d="M163.571 31.5789V0H167.974V31.5789H163.571Z" fill="white"/>
</svg>
