<svg width="59" height="11" viewBox="0 0 59 11" fill="none" xmlns="http://www.w3.org/2000/svg">
<path d="M0.531494 4.74859C0.531494 3.86153 0.747786 3.093 1.18037 2.443C1.61295 1.78535 2.15172 1.30359 2.79666 0.997703C3.44161 0.691821 4.13374 0.538879 4.87307 0.538879C5.7225 0.538879 6.49722 0.718585 7.19722 1.078V2.04153C6.59947 1.65153 5.87981 1.45653 5.03823 1.45653C4.09441 1.45653 3.27644 1.73947 2.5843 2.30535C1.89217 2.86359 1.54217 3.678 1.5343 4.74859C1.5343 5.42917 1.71127 6.01802 2.0652 6.51508C2.427 7.01214 2.86745 7.37155 3.38655 7.59331C3.91352 7.81508 4.47588 7.92596 5.07363 7.92596C5.96239 7.92596 6.68992 7.73096 7.25621 7.34096V8.30449C6.54048 8.6639 5.74217 8.84361 4.86127 8.84361C4.3343 8.84361 3.8152 8.75567 3.30397 8.57978C2.79273 8.39626 2.32868 8.14008 1.91183 7.81126C1.49498 7.47478 1.16071 7.04273 0.909021 6.51508C0.657337 5.97978 0.531494 5.39094 0.531494 4.74859ZM9.11084 10.1971H8.19061V7.88008H8.94567C9.61421 6.73302 9.93668 5.173 9.91308 3.20006H14.1367V7.88008H14.9625V10.1971H14.0423V8.70596H9.11084V10.1971ZM10.8215 4.02594C10.7822 5.53241 10.499 6.81714 9.97207 7.88008H13.1929V4.02594H10.8215ZM15.8361 5.95302C15.8361 5.05064 16.1193 4.34329 16.6855 3.83094C17.2597 3.31859 17.9164 3.06241 18.6558 3.06241C19.3479 3.06241 19.9181 3.23064 20.3664 3.56711C20.8226 3.90359 21.1215 4.32035 21.2631 4.81741C21.4047 5.30682 21.4125 5.8192 21.2867 6.35449H16.7799C16.835 6.89743 17.0827 7.30655 17.5232 7.58184C17.9636 7.85714 18.4945 7.99478 19.1159 7.99478C19.808 7.99478 20.4294 7.84567 20.9799 7.54743V8.44214C20.453 8.70978 19.7844 8.84361 18.9743 8.84361C18.0777 8.84361 17.3305 8.59508 16.7327 8.09802C16.135 7.60096 15.8361 6.88596 15.8361 5.95302ZM20.449 5.55153C20.4726 5.39094 20.4608 5.2227 20.4136 5.04682C20.3664 4.87094 20.2799 4.69506 20.1541 4.51917C20.0361 4.34329 19.8513 4.198 19.5996 4.08329C19.3479 3.96859 19.053 3.91123 18.7148 3.91123C18.2035 3.91123 17.7591 4.05653 17.3816 4.34711C17.0119 4.6377 16.8114 5.03917 16.7799 5.55153H20.449ZM24.7894 4.04888C24.7501 4.653 24.7029 5.18064 24.6478 5.63182C24.5928 6.08302 24.5141 6.5189 24.4119 6.93949C24.3096 7.35243 24.1838 7.6889 24.0344 7.9489C23.8928 8.2089 23.7119 8.41537 23.4917 8.56831C23.2714 8.72126 23.0198 8.79773 22.7366 8.79773C22.5085 8.79773 22.2804 8.75567 22.0523 8.67155V7.9489C22.1782 7.99478 22.304 8.01773 22.4299 8.01773C22.9018 8.01773 23.2439 7.61625 23.4563 6.81331C23.6765 6.00273 23.8141 4.79829 23.8692 3.20006H28.0338V8.70596H27.09V4.04888H24.7894ZM34.4963 7.5589C34.4963 7.84184 34.6418 7.98331 34.9328 7.98331C35.0587 7.98331 35.2042 7.95655 35.3693 7.90302V8.64861C35.1334 8.73273 34.8974 8.77479 34.6615 8.77479C34.1188 8.77479 33.7727 8.55302 33.6233 8.10949C33.0176 8.5989 32.2822 8.84361 31.4171 8.84361C30.8665 8.84361 30.3946 8.70214 30.0014 8.4192C29.616 8.12861 29.4233 7.71184 29.4233 7.1689C29.4233 6.5189 29.671 6.04861 30.1665 5.75802C30.6699 5.45976 31.2755 5.31064 31.9834 5.31064C32.5025 5.31064 33.0255 5.368 33.5525 5.4827V5.2877C33.5525 4.86712 33.4109 4.53447 33.1278 4.28976C32.8446 4.03741 32.4474 3.91123 31.9362 3.91123C31.2205 3.91123 30.5322 4.04888 29.8716 4.32417V3.42947C30.6109 3.18476 31.3306 3.06241 32.0306 3.06241C32.8014 3.06241 33.403 3.26506 33.8356 3.67035C34.2761 4.068 34.4963 4.64535 34.4963 5.40241V7.5589ZM30.3907 7.12302C30.3907 7.4289 30.5087 7.66214 30.7446 7.82273C30.9884 7.97567 31.2794 8.05214 31.6176 8.05214C32.3963 8.05214 33.0412 7.78449 33.5525 7.2492V6.23978C33.0176 6.13273 32.5379 6.0792 32.1131 6.0792C31.6334 6.0792 31.2244 6.16331 30.8862 6.33155C30.5558 6.49214 30.3907 6.75596 30.3907 7.12302ZM37.4435 8.70596H36.4996V3.20006H37.4435V5.52858H40.7232V3.20006H41.667V8.70596H40.7232V6.37743H37.4435V8.70596ZM44.0377 8.07508C43.4399 7.55508 43.1411 6.84773 43.1411 5.95302C43.1411 5.05829 43.4399 4.35476 44.0377 3.84241C44.6354 3.32241 45.3433 3.06241 46.1613 3.06241C46.9871 3.06241 47.695 3.32241 48.2849 3.84241C48.8826 4.35476 49.1815 5.05829 49.1815 5.95302C49.1815 6.84773 48.8826 7.55508 48.2849 8.07508C47.695 8.58743 46.9871 8.84361 46.1613 8.84361C45.3433 8.84361 44.6354 8.58743 44.0377 8.07508ZM47.6478 7.43273C48.0411 7.06567 48.2377 6.57243 48.2377 5.95302C48.2377 5.33358 48.0411 4.84417 47.6478 4.48476C47.2545 4.1177 46.759 3.93417 46.1613 3.93417C45.5635 3.93417 45.068 4.1177 44.6748 4.48476C44.2815 4.84417 44.0849 5.33358 44.0849 5.95302C44.0849 6.57243 44.2815 7.06567 44.6748 7.43273C45.068 7.79214 45.5635 7.97184 46.1613 7.97184C46.759 7.97184 47.2545 7.79214 47.6478 7.43273ZM56.9064 8.70596H53.7092V3.20006H56.812C57.3232 3.20006 57.7401 3.33006 58.0625 3.59006C58.3929 3.85006 58.558 4.21711 58.558 4.69123C58.558 4.96653 58.4873 5.21506 58.3457 5.43682C58.2041 5.65861 58.0232 5.81537 57.803 5.90714C58.0625 5.99126 58.2828 6.1442 58.4637 6.36596C58.6446 6.58773 58.735 6.8592 58.735 7.18037C58.735 7.64684 58.5777 8.01773 58.2631 8.29302C57.9564 8.56831 57.5041 8.70596 56.9064 8.70596ZM54.653 6.32008V7.90302H56.7766C57.453 7.90302 57.7912 7.64302 57.7912 7.12302C57.7912 6.58773 57.4648 6.32008 56.812 6.32008H54.653ZM54.653 4.003V5.52858H56.7176C57.3075 5.52858 57.6024 5.28006 57.6024 4.783C57.6024 4.50006 57.5159 4.30123 57.3429 4.18653C57.1698 4.06417 56.9614 4.003 56.7176 4.003H54.653Z" fill="white"/>
</svg>
