<svg width="167" height="32" viewBox="0 0 167 32" fill="none" xmlns="http://www.w3.org/2000/svg">
<path d="M0 0.842107H22.4314V4.71579H13.5004V31.5789H8.93102V4.71579H0V0.842107Z" fill="#393E4B"/>
<path d="M26.8534 19.0316H38.5261C38.4984 16.9544 37.9722 15.3544 36.9475 14.2316C35.9506 13.1088 34.5659 12.5474 32.7936 12.5474C31.0212 12.5474 29.595 13.1228 28.515 14.2737C27.4627 15.3965 26.9088 16.9825 26.8534 19.0316ZM26.8534 22.3158C26.9365 24.2807 27.6011 25.8386 28.8473 26.9895C30.1212 28.1404 31.7136 28.7158 33.6244 28.7158C35.7014 28.7158 37.7783 28.1825 39.8553 27.1158L40.8938 30.3158C38.4845 31.4386 35.9229 32 33.209 32C30.1074 32 27.5596 30.9754 25.5657 28.9263C23.5995 26.8491 22.6164 24.0842 22.6164 20.6316C22.6164 17.0947 23.5302 14.3158 25.358 12.2947C27.2134 10.2737 29.692 9.26316 32.7936 9.26316C35.8675 9.26316 38.263 10.2175 39.9799 12.1263C41.6969 14.0351 42.5554 16.8 42.5554 20.4211C42.5554 20.8421 42.5277 21.4737 42.4723 22.3158H26.8534Z" fill="#393E4B"/>
<path d="M61.3975 9.26316V12.8C58.3513 12.8 55.942 13.6421 54.1696 15.3263C52.3973 16.9825 51.5111 19.1719 51.5111 21.8947V31.5789H47.274V9.68421H51.3034L51.3865 13.8947H51.4695C54.0173 10.807 57.3266 9.26316 61.3975 9.26316Z" fill="#393E4B"/>
<path d="M70.4892 9.68421L70.5723 12.6316H70.6553C72.2338 10.386 74.0477 9.26316 76.097 9.26316C78.7279 9.26316 80.6525 10.5263 81.871 13.0526H81.9541C83.588 10.5263 85.6511 9.26316 88.1435 9.26316C90.4143 9.26316 92.0898 9.92281 93.1698 11.2421C94.2498 12.5614 94.7898 14.7088 94.7898 17.6842V31.5789H90.719V18.9474C90.719 16.4772 90.4559 14.807 89.9297 13.9368C89.4035 13.0667 88.462 12.6316 87.105 12.6316C85.9696 12.6316 84.9588 13.2632 84.0726 14.5263C83.1864 15.7614 82.7434 17.2351 82.7434 18.9474V31.5789H78.6725V18.9474C78.6725 16.4772 78.4094 14.807 77.8832 13.9368C77.3571 13.0667 76.4155 12.6316 75.0585 12.6316C73.9231 12.6316 72.9123 13.2632 72.0261 14.5263C71.14 15.7614 70.6969 17.2351 70.6969 18.9474V31.5789H66.5429V9.68421H70.4892Z" fill="#393E4B"/>
<path d="M102.032 4.63158V0H106.435V4.63158H102.032ZM102.032 31.5789V9.68421H106.435V31.5789H102.032Z" fill="#393E4B"/>
<path d="M117.83 9.68421L117.913 12.8421H117.996C118.882 11.7193 119.948 10.8491 121.194 10.2316C122.441 9.58597 123.742 9.26316 125.099 9.26316C129.807 9.26316 132.161 12.4912 132.161 18.9474V31.5789H128.09V19.3684C128.09 16.814 127.758 15.0737 127.093 14.1474C126.456 13.193 125.307 12.7158 123.645 12.7158C122.233 12.7158 120.945 13.4316 119.782 14.8632C118.619 16.2667 118.037 17.9088 118.037 19.7895V31.5789H113.883V9.68421H117.83Z" fill="#393E4B"/>
<path d="M150.816 20.7158H148.739C146.247 20.7158 144.322 21.1509 142.965 22.0211C141.636 22.8912 140.972 24.0421 140.972 25.4737C140.972 26.5123 141.276 27.3404 141.885 27.9579C142.522 28.5474 143.353 28.8421 144.378 28.8421C146.122 28.8421 147.632 28.2386 148.906 27.0316C150.179 25.7965 150.816 24.2947 150.816 22.5263V20.7158ZM136.901 25.6842C136.901 23.2421 137.911 21.2912 139.933 19.8316C141.982 18.3439 144.918 17.6 148.739 17.6H150.816V17.3895C150.816 15.6211 150.456 14.386 149.736 13.6842C149.044 12.9825 147.812 12.6316 146.039 12.6316C143.409 12.6316 140.985 13.2632 138.77 14.5263L138.147 11.1579C140.473 9.89474 143.104 9.26316 146.039 9.26316C149.169 9.26316 151.439 9.90877 152.852 11.2C154.264 12.4632 154.97 14.4842 154.97 17.2632V25.6842C154.97 27.6772 155.178 29.6421 155.593 31.5789H151.647C151.426 30.3439 151.301 29.2211 151.273 28.2105H151.19C150.415 29.3895 149.335 30.3158 147.95 30.9895C146.593 31.6632 145.056 32 143.339 32C141.373 32 139.808 31.4386 138.645 30.3158C137.482 29.193 136.901 27.6491 136.901 25.6842Z" fill="#393E4B"/>
<path d="M162.597 31.5789V0H167V31.5789H162.597Z" fill="#393E4B"/>
</svg>
