<svg width="68" height="67" viewBox="0 0 68 67" fill="none" xmlns="http://www.w3.org/2000/svg">
<path d="M32.1165 1.60916H34.2577C51.1113 1.60916 64.8038 15.7685 64.8038 33.2722C64.8038 50.7762 51.1113 64.9351 34.2577 64.9351H32.1165C15.263 64.9351 1.57062 50.7762 1.57062 33.2722C1.57062 15.7685 15.263 1.60916 32.1165 1.60916Z" stroke="white"/>
<path fill-rule="evenodd" clip-rule="evenodd" d="M37.1669 24.8712C37.5883 24.5137 37.5883 23.9336 37.1669 23.576C36.7455 23.2185 36.0624 23.2185 35.641 23.576L24.9595 32.6424C24.6312 32.9214 24.5587 33.335 24.7422 33.6734C24.794 33.7936 24.8768 33.9064 24.9904 34.0029L35.5883 42.9987C36.0065 43.3536 36.6842 43.3536 37.1024 42.9987C37.5204 42.6438 37.5204 42.0685 37.1024 41.7135L27.2138 33.3198L37.1669 24.8712Z" fill="white"/>
<path fill-rule="evenodd" clip-rule="evenodd" d="M37.1669 24.8712C37.5883 24.5137 37.5883 23.9336 37.1669 23.576C36.7455 23.2185 36.0624 23.2185 35.641 23.576L24.9595 32.6424C24.6312 32.9214 24.5587 33.335 24.7422 33.6734C24.794 33.7936 24.8768 33.9064 24.9904 34.0029L35.5883 42.9987C36.0065 43.3536 36.6842 43.3536 37.1024 42.9987C37.5204 42.6438 37.5204 42.0685 37.1024 41.7135L27.2138 33.3198L37.1669 24.8712Z" fill="white"/>
</svg>
