<svg width="42" height="35" viewBox="0 0 42 35" fill="none" xmlns="http://www.w3.org/2000/svg">
<path d="M12.6073 8.51936C9.97357 8.51936 9.43987 4.73453 9.43987 4.73453C9.12661 2.76509 10.078 0.542603 12.5725 0.542603C15.0785 0.542603 16.0299 2.76509 15.7167 4.73453C15.7167 4.73453 15.241 8.51936 12.6073 8.51936ZM12.6073 11.347L15.7631 9.34455C18.536 9.34455 21.0073 11.9081 21.0073 14.3286V17.0683C21.0073 17.0683 16.7725 18.3115 12.6073 18.3115C8.37247 18.3115 4.20728 17.0683 4.20728 17.0683V14.3286C4.20728 11.8531 6.4581 9.39956 9.39346 9.39956L12.6073 11.347Z" fill="#91252E"/>
<rect y="16.4075" width="42" height="4.44177" fill="#91252E"/>
<rect x="3.01434" y="25.7681" width="35.9713" height="6.02869" stroke="#91252E" stroke-width="6.02869"/>
<rect x="26.6106" y="9.42969" width="12.6" height="6.98059" fill="#91252E"/>
</svg>
