<svg width="48" height="38" viewBox="0 0 48 38" fill="none" xmlns="http://www.w3.org/2000/svg">
<rect x="3.90186" y="4.40527" width="39.9161" height="30.7599" fill="#91252E"/>
<path d="M18.4105 18.9308C21.1571 18.9308 23.1831 16.9359 23.1831 14.2313C23.1831 11.5268 21.1571 9.53186 18.4105 9.53186C15.6639 9.53186 13.6379 11.5268 13.6379 14.2313C13.6379 16.9359 15.6615 18.9308 18.4105 18.9308Z" fill="white"/>
<path d="M42.9528 33.5297L43.4531 33.53V33.0297V4.85884V4.35918L42.9535 4.35884L4.77291 4.33299L4.27257 4.33265V4.83299V33.0038V33.5035L4.77223 33.5038L42.9528 33.5297ZM4.77257 0.633545H42.9531C45.3475 0.633545 47.2257 2.42269 47.2257 4.53928V33.3234C47.2257 35.44 45.3475 37.2291 42.9531 37.2291H4.77257C2.37825 37.2291 0.5 35.44 0.5 33.3234V4.53928C0.5 2.42269 2.37825 0.633545 4.77257 0.633545Z" fill="#91252E" stroke="#91252E"/>
<path d="M28.6369 11.8828H38.182V16.5822H28.6369V11.8828ZM31.0232 21.2817H38.182V25.9811H31.0232V21.2817ZM27.2767 27.2405C27.2767 24.012 23.2773 20.6942 18.4117 20.6942C13.546 20.6942 9.54663 24.012 9.54663 27.2405V28.3308H27.2767V27.2405Z" fill="white"/>
</svg>
