<svg width="34" height="41" viewBox="0 0 34 41" fill="none" xmlns="http://www.w3.org/2000/svg">
<path d="M16.807 22.7396C20.2401 22.7396 23.0232 20.0396 23.0232 16.709C23.0232 13.3784 20.2401 10.6785 16.807 10.6785C13.3739 10.6785 10.5908 13.3784 10.5908 16.709C10.5908 20.0396 13.3739 22.7396 16.807 22.7396Z" fill="#91252E"/>
<path d="M29.5022 0.627563H4.11948C3.08943 0.628628 2.10187 1.02607 1.37351 1.73268C0.645147 2.43929 0.235472 3.39735 0.234375 4.39665V29.0214C0.234375 31.0999 1.97698 32.7905 4.11948 32.7905H14.7388V36.8108H6.45055V40.8312H27.1711V36.8108H18.8829V32.7905H29.5022C30.5322 32.7894 31.5198 32.392 32.2482 31.6853C32.9765 30.9787 33.3862 30.0207 33.3873 29.0214V4.39665C33.3862 3.39735 32.9765 2.43929 32.2482 1.73268C31.5198 1.02607 30.5322 0.628628 29.5022 0.627563ZM16.8108 26.7599C11.0982 26.7599 6.45055 22.2511 6.45055 16.709C6.45055 11.1669 11.0982 6.65811 16.8108 6.65811C22.5235 6.65811 27.1711 11.1669 27.1711 16.709C27.1711 22.2511 22.5235 26.7599 16.8108 26.7599Z" fill="#91252E"/>
</svg>
