<svg width="34" height="33" viewBox="0 0 34 33" fill="none" xmlns="http://www.w3.org/2000/svg">
<path d="M27.4164 5.4751C27.4164 5.4751 20.4531 2.10843 16.9721 0.423099C16.3386 0.120915 15.6371 -0.0234499 14.9312 0.00309919C13.8756 0.0657659 12.6202 1.05377 12.6202 1.05377L7.24792e-05 13.2658V26.3178H5.87469V32.0018H19.5835L31.986 20.0018C32.6557 19.3351 33.0732 18.3951 33.0732 17.4751C33.0732 17.0498 32.8252 16.3844 32.6378 16.0018L27.4164 5.4751ZM26.4807 6.38043V22.0964C26.4779 22.8204 26.4517 23.4618 25.7944 24.1071L19.0116 30.6684H7.25274V24.9844L26.4807 6.38043ZM9.86828 5.47643C11.1071 4.28177 12.3612 3.1031 13.6441 1.95243C14.0603 1.59643 14.4255 1.32843 15.1186 1.33643C15.6285 1.3551 16.3175 1.59643 16.3175 1.59643L24.335 5.4751L9.86828 5.47643Z" fill="#94252E"/>
</svg>
