<svg width="33" height="35" viewBox="0 0 33 35" fill="none" xmlns="http://www.w3.org/2000/svg">
<path d="M31.086 19.6895C33.0591 14.5231 32.0757 8.38052 28.1294 4.19028C22.8741 -1.39448 14.3489 -1.39448 9.09356 4.19028L5.5858 7.91567L18.8339 21.9606C21.7215 17.8368 27.0708 16.8208 31.086 19.6895ZM17.437 24.9821L3.63148 10.3528C1.92145 13.361 2.27222 17.3254 4.71513 19.9219L6.87616 22.2196L0.424384 28.1563C-0.114308 28.6543 -0.145627 29.5309 0.361746 30.0688L3.70665 33.6215C4.20775 34.1594 5.03458 34.1262 5.50437 33.5551L11.098 26.6954L13.3342 29.0661C14.5682 30.3743 16.1279 31.0915 17.7377 31.2774C17.293 30.1485 17.0487 28.9133 17.0487 27.6184C17.0424 26.702 17.2053 25.8254 17.437 24.9821ZM26.0624 21.25C22.7425 21.25 20.049 24.1055 20.049 27.625C20.049 31.1446 22.7425 34 26.0624 34C29.3822 34 32.0757 31.1446 32.0757 27.625C32.0757 24.1055 29.3822 21.25 26.0624 21.25Z" fill="#94252E"/>
</svg>
