<svg width="42" height="37" viewBox="0 0 42 37" fill="none" xmlns="http://www.w3.org/2000/svg">
<path d="M9.1778 0.00488281C4.10659 0.00488281 0 4.11155 0 9.17155C0 14.2316 4.10659 18.3382 9.1778 18.3382C14.2582 18.3382 18.374 14.2316 18.374 9.17155C18.374 4.11155 14.2582 0.00488281 9.1778 0.00488281ZM12.8618 12.8382C12.7768 12.9232 12.6758 12.9906 12.5647 13.0366C12.4536 13.0826 12.3344 13.1063 12.2141 13.1063C12.0938 13.1063 11.9746 13.0826 11.8635 13.0366C11.7524 12.9906 11.6514 12.9232 11.5664 12.8382L8.5439 9.82238C8.4571 9.73749 8.38804 9.63624 8.34073 9.52453C8.29342 9.41281 8.2688 9.29283 8.26829 9.17155V5.50488C8.26829 5.00072 8.68171 4.58822 9.18699 4.58822C9.69228 4.58822 10.1057 5.00072 10.1057 5.50488V8.79572L12.8618 11.5457C13.2201 11.9032 13.2201 12.4807 12.8618 12.8382Z" fill="#94252E"/>
<path d="M17.7493 17.6085C14.2353 17.6085 11.3602 20.4773 11.3602 23.9835C11.3602 26.0915 12.4005 27.9679 13.9893 29.1303C11.1813 30.52 9.23047 33.4015 9.23047 36.7335H11.3602C11.3602 33.2018 14.2097 30.3585 17.7493 30.3585C21.2889 30.3585 24.1385 33.2018 24.1385 36.7335H26.2682C26.2682 33.2018 29.1177 30.3585 32.6573 30.3585C36.1969 30.3585 39.0464 33.2018 39.0464 36.7335H41.1761C41.1761 33.4005 39.2253 30.52 36.4173 29.1303C37.2303 28.5392 37.8921 27.765 38.349 26.8707C38.8058 25.9765 39.0448 24.9873 39.0464 23.9835C39.0464 20.4773 36.1713 17.6085 32.6573 17.6085C29.1433 17.6085 26.2682 20.4773 26.2682 23.9835C26.2682 26.0915 27.3085 27.9679 28.8973 29.1303C27.3415 29.8935 26.0537 31.1088 25.2033 32.6163C24.353 31.1088 23.0652 29.8935 21.5093 29.1303C22.3223 28.5392 22.9842 27.765 23.441 26.8707C23.8978 25.9765 24.1368 24.9873 24.1385 23.9835C24.1385 20.4773 21.2633 17.6085 17.7493 17.6085ZM17.7493 19.7335C20.1165 19.7335 22.0087 21.6216 22.0087 23.9835C22.0087 26.3455 20.1165 28.2335 17.7493 28.2335C15.3821 28.2335 13.4899 26.3455 13.4899 23.9835C13.4899 21.6216 15.3821 19.7335 17.7493 19.7335ZM32.6573 19.7335C35.0245 19.7335 36.9167 21.6216 36.9167 23.9835C36.9167 26.3455 35.0245 28.2335 32.6573 28.2335C30.2901 28.2335 28.3979 26.3455 28.3979 23.9835C28.3979 21.6216 30.2901 19.7335 32.6573 19.7335Z" fill="#94252E"/>
</svg>
