<svg width="61" height="61" viewBox="0 0 61 61" fill="none" xmlns="http://www.w3.org/2000/svg">
<path d="M30.3484 0.425293C13.7814 0.425293 0.348389 13.8583 0.348389 30.4253C0.348389 46.9923 13.7814 60.4253 30.3484 60.4253C46.9154 60.4253 60.3484 46.9923 60.3484 30.4253C60.3484 13.8583 46.9154 0.425293 30.3484 0.425293ZM39.9979 30.8873L25.3729 41.528C25.2928 41.5856 25.1983 41.62 25.0998 41.6274C25.0013 41.6348 24.9028 41.6149 24.8149 41.5699C24.727 41.5249 24.6532 41.4566 24.6016 41.3724C24.55 41.2882 24.5227 41.1914 24.5225 41.0927V19.8248C24.5222 19.7259 24.5492 19.6288 24.6007 19.5443C24.6522 19.4599 24.7261 19.3913 24.8141 19.3462C24.9022 19.3011 25.001 19.2813 25.0997 19.289C25.1983 19.2966 25.2929 19.3315 25.3729 19.3896L39.9979 30.0235C40.067 30.0724 40.1234 30.1371 40.1623 30.2123C40.2012 30.2874 40.2215 30.3708 40.2215 30.4554C40.2215 30.5401 40.2012 30.6234 40.1623 30.6986C40.1234 30.7738 40.067 30.8385 39.9979 30.8873Z" fill="white"/>
</svg>
